<svg width="200" height="68" viewBox="0 0 200 68" fill="none" xmlns="http://www.w3.org/2000/svg">
<g clip-path="url(#clip0)">
<path d="M187.97 20.3169C194.452 20.3169 198.618 15.8929 198.618 10.3888C198.618 4.67878 194.452 0.151978 187.97 0.151978C181.54 0.151978 177.527 4.67878 177.527 10.3888C177.527 15.8929 181.54 20.3169 187.97 20.3169ZM188.073 13.9382C185.552 13.9382 184.318 12.3435 184.318 10.2859C184.318 8.27965 185.552 6.4278 188.073 6.4278C190.491 6.4278 191.931 8.27965 191.931 10.2859C191.931 12.3435 190.491 13.9382 188.073 13.9382Z" fill="#00BFFF"/>
<path d="M142.545 35.4943H152.01V23.8172H156.331C157.874 25.2576 162.607 34.2597 164.613 35.4943H174.85C173.049 34.6198 167.339 24.3316 165.333 22.1711V21.7596C169.448 20.525 172.381 16.6669 172.381 11.5742C172.381 4.52681 168.111 0 157.565 0H142.545V35.4943ZM151.856 16.9241V7.25319H156.743C161.115 7.25319 162.607 9.25938 162.607 12.1401C162.607 15.0722 161.115 16.9241 156.743 16.9241H151.856V16.9241ZM107.327 35.4943H134.745V27.9324H116.741V21.1937H134.745V13.8891H116.741V7.45894H134.745V0H107.327V35.4943ZM70.3285 35.4943H86.6352C95.689 35.4943 100.524 32.4593 100.524 25.8234C100.524 20.062 96.6148 18.1072 93.837 17.49V17.1813C96.4092 16.5126 99.7528 13.992 99.7528 9.31085C99.7528 2.57205 95.4318 0 87.0469 0H70.3285V35.4943V35.4943ZM79.3821 14.4035V6.79023H85.3492C89.3104 6.79023 90.4418 8.12768 90.4418 10.6483C90.4418 12.9632 89.3617 14.4035 84.9891 14.4035H79.3821ZM79.3821 28.6013V20.7307H85.5037C89.6189 20.7307 91.1621 22.0168 91.1621 24.6917C91.1621 27.6239 89.516 28.6013 85.5551 28.6013H79.3821V28.6013ZM35.1111 35.4943H62.5291V27.9324H44.5247V21.1937H62.5291V13.8891H44.5247V7.45894H62.5291V0H35.1111V35.4943V35.4943ZM0.685646 35.4943H10.1508V22.9942H27.2292V15.5352H10.1508V7.45894H27.2292V0H0.685646V35.4943Z" fill="white"/>
</g>
<path d="M0.446464 56.7966C0.148821 56.6053 0 56.3289 0 55.9675C0 55.6061 0.116931 55.2765 0.350793 54.9789C0.265752 52.8529 0.223232 50.6099 0.223232 48.25C0.350793 47.7398 0.542135 47.3677 0.797257 47.1339C1.07364 46.9 1.46695 46.7512 1.9772 46.6874C4.78355 46.815 7.82375 46.8788 11.0978 46.8788C11.9057 47.0488 12.3097 47.3996 12.3097 47.9311C12.3097 48.8241 11.438 49.3449 9.69465 49.4938C9.22693 49.515 8.71668 49.5256 8.16392 49.5256H6.09105C5.6871 49.5256 4.57094 49.4406 2.74257 49.2705C2.74257 51.928 2.78509 53.7564 2.87013 54.7557C3.99692 54.7769 6.16546 54.7875 9.37575 54.7875C10.1411 54.9364 10.5238 55.2872 10.5238 55.8399C10.5238 56.3714 10.2155 56.786 9.59898 57.0836C9.5352 57.1262 9.41827 57.1687 9.24819 57.2112L3.73117 57.1155C3.391 57.1155 3.11462 57.1368 2.90202 57.1793L3.02958 62.6644C3.02958 63.8975 2.99769 64.7798 2.93391 65.3113L10.3325 65.2157C11.0128 65.322 11.3529 65.609 11.3529 66.0767C11.3529 66.3956 11.2041 66.7145 10.9065 67.0334C10.6301 67.3523 10.3006 67.5543 9.91788 67.6393L1.75397 67.7669C1.26498 67.7669 0.924819 67.6819 0.733477 67.5118C0.542135 67.3204 0.446464 67.0122 0.446464 66.587C0.531505 65.9917 0.574025 65.035 0.574025 63.7168V61.4845L0.446464 56.7966Z" fill="#00BFFF"/>
<path d="M28.841 46.8469C29.0536 46.7193 29.33 46.6555 29.6702 46.6555C30.0104 46.6555 30.3186 46.8043 30.595 47.102C30.8714 47.3784 31.0096 47.7079 31.0096 48.0906C31.0096 56.4033 31.0415 61.4314 31.1052 63.1747C31.1903 64.8968 31.2328 65.7791 31.2328 65.8216C31.2328 66.2893 31.1052 66.7358 30.8501 67.161C30.595 67.5649 30.308 67.7669 29.9891 67.7669C29.6914 67.7669 29.4576 67.7563 29.2875 67.735C29.1387 67.6925 29.0005 67.65 28.8729 67.6074C28.7454 67.5649 28.6178 67.4799 28.4902 67.3523L28.1713 67.0334C28.0863 66.9484 27.9694 66.7889 27.8205 66.5551C27.693 66.2999 27.5867 66.098 27.5016 65.9492C27.4166 65.8003 27.2784 65.5452 27.0871 65.1838C26.917 64.8011 26.5237 64.0357 25.9071 62.8877C25.3118 61.7396 24.7697 60.7085 24.2807 59.7943C22.6012 56.7116 21.0385 54.2773 19.5929 52.4914C19.5929 59.401 19.4015 64.1952 19.0188 66.874C18.955 67.3842 18.5617 67.6393 17.8389 67.6393C17.4987 67.6393 17.2117 67.5543 16.9778 67.3842C16.7652 67.2141 16.6589 66.9378 16.6589 66.5551C16.6589 66.1724 16.7334 64.0676 16.8822 60.2408C17.0523 56.414 17.1373 54.0328 17.1373 53.0974C17.1373 52.1407 17.1373 51.5347 17.1373 51.2796C17.1373 49.7489 17.2542 48.8878 17.4881 48.6965C17.722 48.5052 17.9664 48.4095 18.2216 48.4095C19.3909 48.4095 21.1767 50.3229 23.5791 54.1497C24.0469 54.8938 24.9398 56.4565 26.2579 58.8376C27.5761 61.1975 28.3627 62.6538 28.6178 63.2066L28.2351 49.9721C28.2351 48.1437 28.4371 47.102 28.841 46.8469Z" fill="#00BFFF"/>
<path d="M39.085 55.5529C40.7433 55.8293 42.2634 55.9675 43.6454 55.9675C45.0273 55.9675 45.9096 55.9569 46.2923 55.9356C46.2497 54.3198 46.2285 52.7678 46.2285 51.2796C46.2285 49.7914 46.2285 48.7815 46.2285 48.25C46.2285 47.7185 46.2497 47.389 46.2923 47.2614C46.3348 47.1126 46.473 46.9744 46.7068 46.8469C46.9407 46.7193 47.2809 46.6555 47.7273 46.6555C48.3651 46.6555 48.684 47.0382 48.684 47.8036V59.0927C48.684 61.4314 48.6309 64.0038 48.5246 66.8102C48.5033 67.4267 47.9824 67.735 46.962 67.735C46.4517 67.735 46.1966 67.4267 46.1966 66.8102L46.3241 58.3593C45.6438 58.4018 44.7084 58.423 43.5178 58.423C42.3485 58.423 40.8709 58.2955 39.085 58.0404C39.085 60.8467 39.2126 63.7806 39.4677 66.8421C39.489 67.1822 39.3402 67.448 39.0213 67.6393C38.7024 67.8094 38.2984 67.8945 37.8094 67.8945C37.3417 67.8945 37.0866 67.65 37.0441 67.161C36.7677 64.142 36.6295 61.1656 36.6295 58.2317L36.8208 48.2819C36.8208 47.8567 36.9803 47.5484 37.2992 47.3571C37.6181 47.1445 37.9583 47.0382 38.3197 47.0382C38.915 47.0382 39.2126 47.3252 39.2126 47.8992L39.085 55.5529Z" fill="#00BFFF"/>
<path d="M60.6038 46.7512C61.1353 46.7512 61.5817 46.9851 61.9432 47.4528C62.3046 47.9205 62.7723 48.8878 63.3463 50.3548C64.6857 53.8202 65.9932 59.2522 67.2689 66.6507C67.2901 66.7358 67.3007 66.8633 67.3007 67.0334C67.3007 67.1822 67.1944 67.3523 66.9818 67.5437C66.7905 67.7137 66.5035 67.7988 66.1208 67.7988C65.7594 67.7988 65.4511 67.7137 65.196 67.5437C64.9409 67.3523 64.7708 67.0547 64.6857 66.6507C64.6007 66.2255 64.4412 65.407 64.2074 64.1952C63.6971 61.4951 63.357 60.092 63.1869 59.9857C62.9318 59.8368 62.0814 59.6774 60.6357 59.5073C59.2112 59.3372 58.2652 59.2522 57.7974 59.2522C57.3297 59.2522 57.0533 59.2947 56.9683 59.3797C56.5856 59.7199 56.0647 62.303 55.4057 67.1291C55.3206 67.533 54.9167 67.735 54.1938 67.735C53.471 67.735 53.1096 67.4267 53.1096 66.8102C53.1096 65.2795 53.673 62.3562 54.7997 58.0404C55.9265 53.7245 56.862 50.865 57.6061 49.4619C58.5415 47.6547 59.5408 46.7512 60.6038 46.7512ZM60.4762 50.291C60.1573 50.291 59.6045 51.2371 58.8179 53.1293C58.0313 55.0001 57.638 56.1588 57.638 56.6053C57.638 56.7116 57.6592 56.786 57.7018 56.8285C57.8718 56.9986 58.5415 57.1474 59.7108 57.275C60.8802 57.4026 61.6562 57.4663 62.0388 57.4663C62.4215 57.4663 62.6341 57.4451 62.6766 57.4025C62.7192 57.3388 62.7404 57.1687 62.7404 56.8923C62.7404 56.5947 62.4534 55.4254 61.8794 53.3844C61.3054 51.3221 60.8376 50.291 60.4762 50.291Z" fill="#00BFFF"/>
<path d="M83.9564 46.8469C84.1691 46.7193 84.4454 46.6555 84.7856 46.6555C85.1258 46.6555 85.434 46.8043 85.7104 47.102C85.9868 47.3784 86.125 47.7079 86.125 48.0906C86.125 56.4033 86.1569 61.4314 86.2207 63.1747C86.3057 64.8968 86.3482 65.7791 86.3482 65.8216C86.3482 66.2893 86.2207 66.7358 85.9655 67.161C85.7104 67.5649 85.4234 67.7669 85.1045 67.7669C84.8069 67.7669 84.573 67.7563 84.4029 67.735C84.2541 67.6925 84.1159 67.65 83.9883 67.6074C83.8608 67.5649 83.7332 67.4799 83.6056 67.3523L83.2867 67.0334C83.2017 66.9484 83.0848 66.7889 82.936 66.5551C82.8084 66.2999 82.7021 66.098 82.6171 65.9492C82.532 65.8003 82.3938 65.5452 82.2025 65.1838C82.0324 64.8011 81.6391 64.0357 81.0225 62.8877C80.4273 61.7396 79.8851 60.7085 79.3961 59.7943C77.7166 56.7116 76.1539 54.2773 74.7083 52.4914C74.7083 59.401 74.5169 64.1952 74.1342 66.874C74.0705 67.3842 73.6771 67.6393 72.9543 67.6393C72.6141 67.6393 72.3271 67.5543 72.0933 67.3842C71.8807 67.2141 71.7743 66.9378 71.7743 66.5551C71.7743 66.1724 71.8488 64.0676 71.9976 60.2408C72.1677 56.414 72.2527 54.0328 72.2527 53.0974C72.2527 52.1407 72.2527 51.5347 72.2527 51.2796C72.2527 49.7489 72.3696 48.8878 72.6035 48.6965C72.8374 48.5052 73.0819 48.4095 73.337 48.4095C74.5063 48.4095 76.2921 50.3229 78.6946 54.1497C79.1623 54.8938 80.0552 56.4565 81.3733 58.8376C82.6915 61.1975 83.4781 62.6538 83.7332 63.2066L83.3505 49.9721C83.3505 48.1437 83.5525 47.102 83.9564 46.8469Z" fill="#00BFFF"/>
<path d="M100.706 46.9106C102.131 46.9106 103.704 47.187 105.426 47.7398C105.809 48.0374 106 48.367 106 48.7284C106 49.0686 105.819 49.3768 105.458 49.6532C105.118 49.9083 104.724 50.0359 104.278 50.0359C103.13 49.7382 102.056 49.5894 101.057 49.5894C98.7608 49.5894 97.0174 50.2698 95.8269 51.6304C94.6363 52.9911 94.041 55.0108 94.041 57.6896C94.041 60.3683 94.7426 62.4625 96.1458 63.972C96.8686 64.7586 97.7297 65.1519 98.7289 65.1519C99.7281 65.1519 101.323 64.6204 103.512 63.5574C104.278 63.196 104.788 63.0152 105.043 63.0152C105.596 63.0152 105.872 63.3023 105.872 63.8763C105.872 64.4503 105.607 64.9287 105.075 65.3113C103.247 66.2681 101.822 66.9165 100.802 67.2567C99.7813 67.5756 98.899 67.735 98.1549 67.735C96.6241 67.735 95.3166 67.1716 94.2323 66.0448C92.2977 63.9613 91.3303 61.1231 91.3303 57.5301C91.3303 53.9159 92.2445 51.2477 94.0729 49.5256C95.9225 47.7823 98.1336 46.9106 100.706 46.9106Z" fill="#00BFFF"/>
<path d="M111.767 56.7966C111.47 56.6053 111.321 56.3289 111.321 55.9675C111.321 55.6061 111.438 55.2765 111.672 54.9789C111.587 52.8529 111.544 50.6099 111.544 48.25C111.672 47.7398 111.863 47.3677 112.118 47.1339C112.394 46.9 112.788 46.7512 113.298 46.6874C116.104 46.815 119.145 46.8788 122.419 46.8788C123.227 47.0488 123.63 47.3996 123.63 47.9311C123.63 48.8241 122.759 49.3449 121.015 49.4938C120.548 49.515 120.037 49.5256 119.485 49.5256H117.412C117.008 49.5256 115.892 49.4406 114.063 49.2705C114.063 51.928 114.106 53.7564 114.191 54.7557C115.318 54.7769 117.486 54.7875 120.697 54.7875C121.462 54.9364 121.845 55.2872 121.845 55.8399C121.845 56.3714 121.536 56.786 120.92 57.0836C120.856 57.1262 120.739 57.1687 120.569 57.2112L115.052 57.1155C114.712 57.1155 114.435 57.1368 114.223 57.1793L114.35 62.6644C114.35 63.8975 114.319 64.7798 114.255 65.3113L121.653 65.2157C122.334 65.322 122.674 65.609 122.674 66.0767C122.674 66.3956 122.525 66.7145 122.227 67.0334C121.951 67.3523 121.621 67.5543 121.239 67.6393L113.075 67.7669C112.586 67.7669 112.246 67.6819 112.054 67.5118C111.863 67.3204 111.767 67.0122 111.767 66.587C111.852 65.9917 111.895 65.035 111.895 63.7168V61.4845L111.767 56.7966Z" fill="#00BFFF"/>
<path d="M130.467 66.3956C130.467 66.7783 130.297 67.1291 129.957 67.448C129.617 67.7456 129.245 67.8945 128.841 67.8945C128.458 67.8945 128.192 67.6393 128.044 67.1291C127.98 64.3227 127.948 61.527 127.948 58.7419L127.852 50.7056C127.852 49.0898 128.564 47.9843 129.989 47.389C131.137 46.8575 132.498 46.5917 134.071 46.5917C134.879 46.5917 135.74 46.7937 136.654 47.1977C137.589 47.5803 138.419 48.1544 139.141 48.9197C139.885 49.6638 140.258 50.4824 140.258 51.3753C140.258 52.247 139.854 53.193 139.046 54.2135C138.238 55.2128 137.239 56.1057 136.048 56.8923C134.857 57.6577 133.699 58.2317 132.572 58.6144C134.549 59.9963 136.271 61.4845 137.738 63.079C139.205 64.6523 139.939 65.8747 139.939 66.7464C139.939 67.0228 139.8 67.2885 139.524 67.5437C139.248 67.7775 138.907 67.8945 138.504 67.8945C138.121 67.8945 137.791 67.7244 137.515 67.3842C137.047 66.2574 136.154 65.0775 134.836 63.8444C133.539 62.59 132.019 61.3995 130.276 60.2727L130.467 66.3956ZM130.34 56.8285C131.764 56.7647 133.359 56.1695 135.123 55.0427C136.909 53.9159 137.802 52.906 137.802 52.0131C137.802 51.0989 137.356 50.3973 136.463 49.9083C135.57 49.4193 134.507 49.1749 133.274 49.1749C132.062 49.1749 131.094 49.3237 130.372 49.6213C130.35 50.7056 130.34 53.108 130.34 56.8285Z" fill="#00BFFF"/>
<defs>
<clipPath id="clip0">
<rect width="199.314" height="35.4943" fill="white" transform="translate(0.685646)"/>
</clipPath>
</defs>
</svg>
